<svg xmlns="http://www.w3.org/2000/svg" version="1.1" xmlns:xlink="http://www.w3.org/1999/xlink" xmlns:svgjs="http://svgjs.com/svgjs" width="3000" height="300" preserveAspectRatio="none" viewBox="0 0 3000 300"><g mask="url(&quot;#SvgjsMask1777&quot;)" fill="none"><rect width="3000" height="300" x="0" y="0" fill="url(#SvgjsLinearGradient1778)"></rect><path d="M73 300L373 0L703 0L403 300z" fill="url(#SvgjsLinearGradient1779)"></path><path d="M592 300L892 0L1126 0L826 300z" fill="url(#SvgjsLinearGradient1779)"></path><path d="M1010 300L1310 0L1800.5 0L1500.5 300z" fill="url(#SvgjsLinearGradient1779)"></path><path d="M1555 300L1855 0L2152 0L1852 300z" fill="url(#SvgjsLinearGradient1779)"></path><path d="M2934 300L2634 0L2305.5 0L2605.5 300z" fill="url(#SvgjsLinearGradient1780)"></path><path d="M2443 300L2143 0L1858 0L2158 300z" fill="url(#SvgjsLinearGradient1780)"></path><path d="M1983 300L1683 0L1350 0L1650 300z" fill="url(#SvgjsLinearGradient1780)"></path><path d="M1468 300L1168 0L649 0L949 300z" fill="url(#SvgjsLinearGradient1780)"></path><path d="M2781.0799839041692 300L3000 81.07998390416904L3000 300z" fill="url(#SvgjsLinearGradient1779)"></path><path d="M0 300L218.92001609583096 300L 0 81.07998390416904z" fill="url(#SvgjsLinearGradient1780)"></path></g><defs><mask id="SvgjsMask1777"><rect width="3000" height="300" fill="#ffffff"></rect></mask><linearGradient x1="77.5%" y1="-225%" x2="22.5%" y2="325%" gradientUnits="userSpaceOnUse" id="SvgjsLinearGradient1778"><stop stop-color="#0e2a47" offset="0"></stop><stop stop-color="rgba(12, 36, 68, 1)" offset="1"></stop></linearGradient><linearGradient x1="0%" y1="100%" x2="100%" y2="0%" id="SvgjsLinearGradient1779"><stop stop-color="rgba(70, 93, 140, 0.2)" offset="0"></stop><stop stop-opacity="0" stop-color="rgba(70, 93, 140, 0.2)" offset="0.66"></stop></linearGradient><linearGradient x1="100%" y1="100%" x2="0%" y2="0%" id="SvgjsLinearGradient1780"><stop stop-color="rgba(70, 93, 140, 0.2)" offset="0"></stop><stop stop-opacity="0" stop-color="rgba(70, 93, 140, 0.2)" offset="0.66"></stop></linearGradient></defs></svg>