<svg xmlns="http://www.w3.org/2000/svg" version="1.1" xmlns:xlink="http://www.w3.org/1999/xlink" xmlns:svgjs="http://svgjs.com/svgjs" width="1440" height="560" preserveAspectRatio="none" viewBox="0 0 1440 560"><g clip-path="url(&quot;#SvgjsClipPath1000&quot;)" fill="none"><rect width="1440" height="560" x="0" y="0" fill="#0e2a47"></rect><circle r="93.335" cx="-83.54" cy="82.73" stroke="#365aa3" stroke-opacity="0.25" stroke-width="2"></circle><circle r="93.335" cx="427.89" cy="313.81" stroke="#365aa3" stroke-opacity="0.25" stroke-width="2"></circle><circle r="93.335" cx="728.66" cy="828.96" stroke="#365aa3" stroke-opacity="0.25" stroke-width="2"></circle><circle r="106.635" cx="1408.22" cy="39.77" stroke="#365aa3" stroke-opacity="0.25" stroke-width="2"></circle><circle r="75.915" cx="957.44" cy="226.6" stroke="#365aa3" stroke-opacity="0.25" stroke-width="2"></circle><circle r="163.555" cx="503.04" cy="355.08" stroke="#365aa3" stroke-opacity="0.25" stroke-width="2"></circle><circle r="112.98" cx="1009.97" cy="204.14" stroke="#365aa3" stroke-opacity="0.25" stroke-width="2"></circle><circle r="91.58" cx="250.81" cy="217.77" stroke="#365aa3" stroke-opacity="0.25" stroke-width="2"></circle><circle r="116.875" cx="499.72" cy="536.82" stroke="#365aa3" stroke-opacity="0.25" stroke-width="2"></circle><circle r="136.515" cx="757.7" cy="307.15" stroke="#365aa3" stroke-opacity="0.25" stroke-width="2"></circle><circle r="48.36" cx="1189.52" cy="525.64" stroke="#365aa3" stroke-opacity="0.25" stroke-width="2"></circle><circle r="122.025" cx="1282.54" cy="111.34" stroke="#365aa3" stroke-opacity="0.25" stroke-width="2"></circle><circle r="86.595" cx="127.58" cy="456.63" stroke="#365aa3" stroke-opacity="0.25" stroke-width="2"></circle><circle r="166.9" cx="481.28" cy="367.89" stroke="#365aa3" stroke-opacity="0.25" stroke-width="2"></circle><circle r="67.56" cx="1089.88" cy="95.95" stroke="#365aa3" stroke-opacity="0.25" stroke-width="2"></circle><circle r="157.065" cx="446.98" cy="24.31" stroke="#365aa3" stroke-opacity="0.25" stroke-width="2"></circle><circle r="132.485" cx="188.11" cy="110.73" stroke="#365aa3" stroke-opacity="0.25" stroke-width="2"></circle><circle r="183.595" cx="89.32" cy="443.19" stroke="#365aa3" stroke-opacity="0.25" stroke-width="2"></circle><circle r="96.345" cx="1204.81" cy="146.86" stroke="#365aa3" stroke-opacity="0.25" stroke-width="2"></circle><circle r="72.905" cx="489.53" cy="113.12" stroke="#365aa3" stroke-opacity="0.25" stroke-width="2"></circle><circle r="140.195" cx="995.25" cy="306.65" stroke="#365aa3" stroke-opacity="0.25" stroke-width="2"></circle><circle r="64.56" cx="878.88" cy="181.72" stroke="#365aa3" stroke-opacity="0.25" stroke-width="2"></circle><circle r="161.255" cx="844.09" cy="419.8" stroke="#365aa3" stroke-opacity="0.25" stroke-width="2"></circle><circle r="56.96" cx="607.34" cy="479.32" stroke="#365aa3" stroke-opacity="0.25" stroke-width="2"></circle><circle r="96.185" cx="113.03" cy="534.6" stroke="#365aa3" stroke-opacity="0.25" stroke-width="2"></circle><circle r="175.28" cx="970.99" cy="4.09" stroke="#365aa3" stroke-opacity="0.25" stroke-width="2"></circle><circle r="135.41" cx="391.14" cy="545.61" stroke="#365aa3" stroke-opacity="0.25" stroke-width="2"></circle><circle r="159.85" cx="1353.48" cy="540.54" stroke="#365aa3" stroke-opacity="0.25" stroke-width="2"></circle><circle r="182.665" cx="254.28" cy="60.11" stroke="#365aa3" stroke-opacity="0.25" stroke-width="2"></circle><circle r="122.185" cx="1073.31" cy="459.99" stroke="#365aa3" stroke-opacity="0.25" stroke-width="2"></circle><circle r="143.905" cx="139.72" cy="33.21" stroke="#365aa3" stroke-opacity="0.25" stroke-width="2"></circle><circle r="53.625" cx="941.43" cy="478.26" stroke="#365aa3" stroke-opacity="0.25" stroke-width="2"></circle><circle r="144.005" cx="1159.95" cy="136.19" stroke="#365aa3" stroke-opacity="0.25" stroke-width="2"></circle><circle r="167.765" cx="341.76" cy="179.54" stroke="#365aa3" stroke-opacity="0.25" stroke-width="2"></circle><circle r="47.145" cx="1217.27" cy="77.17" stroke="#365aa3" stroke-opacity="0.25" stroke-width="2"></circle><circle r="185.19" cx="941.15" cy="113.03" stroke="#365aa3" stroke-opacity="0.25" stroke-width="2"></circle><circle r="78.42" cx="923.27" cy="445.94" stroke="#365aa3" stroke-opacity="0.25" stroke-width="2"></circle><circle r="93.565" cx="407.98" cy="480.21" stroke="#365aa3" stroke-opacity="0.25" stroke-width="2"></circle><circle r="145.69" cx="1005.51" cy="372.2" stroke="#365aa3" stroke-opacity="0.25" stroke-width="2"></circle><circle r="186.585" cx="589" cy="457.27" stroke="#365aa3" stroke-opacity="0.25" stroke-width="2"></circle></g><defs><clipPath id="SvgjsClipPath1000"><rect width="1440" height="560" x="0" y="0"></rect></clipPath></defs></svg>